<?xml version="1.0" encoding="UTF-8"?><svg id="Layer_1" xmlns="http://www.w3.org/2000/svg" viewBox="0 0 199 44"><defs><style>.cls-1{fill:#339fa7;}.cls-2{fill:#262626;}.cls-3{fill:#ffd024;}.cls-4{fill:#e5293a;}</style></defs><path class="cls-2" d="M2.6,7.92h4.75v2.3c0,.74-.08,1.36-.08,1.36h.08c.97-1.95,3.35-4.13,6.46-4.13s4.98,1.4,5.8,4.09h.08c1.09-2.14,3.66-4.09,6.77-4.09,4.12,0,6.5,2.34,6.5,7.55v13.21h-4.94v-12.27c0-2.26-.43-3.97-2.72-3.97-2.53,0-4.2,2.02-4.79,4.51-.19.78-.23,1.63-.23,2.57v9.16h-4.94v-12.27c0-2.14-.35-3.97-2.68-3.97-2.57,0-4.24,2.02-4.86,4.55-.19.74-.23,1.63-.23,2.53v9.16H2.6V7.92Z"/><path class="cls-2" d="M49.06,15.39c-.08-2.68-1.75-4.12-3.93-4.12-2.53,0-4.28,1.56-4.75,4.12h8.68ZM45.24,7.45c5.72,0,8.79,4.16,8.79,9.42,0,.58-.12,1.91-.12,1.91h-13.7c.31,3.46,3,5.25,5.95,5.25,3.19,0,5.72-2.18,5.72-2.18l1.91,3.54s-3.03,2.84-7.98,2.84c-6.58,0-10.66-4.75-10.66-10.39,0-6.11,4.16-10.39,10.08-10.39"/><path class="cls-2" d="M57.81,12.03h-2.57v-3.93h2.68V2.38h4.83v5.72h4.51v3.93h-4.51v8.11c0,3.27,2.57,3.74,3.93,3.74.54,0,.89-.08.89-.08v4.32s-.58.12-1.52.12c-2.76,0-8.25-.82-8.25-7.47v-8.73Z"/><path class="cls-2" d="M70.07.13h4.94v9.57c0,.97-.08,1.67-.08,1.67h.08c.97-1.91,3.39-3.93,6.85-3.93,4.4,0,6.89,2.3,6.89,7.55v13.21h-4.9v-12.2c0-2.41-.62-4.05-3.15-4.05s-4.63,1.71-5.37,4.12c-.23.78-.31,1.63-.31,2.57v9.55h-4.94V.13Z"/><path class="cls-2" d="M101.82,24.03c3.19,0,5.88-2.49,5.88-6.19s-2.68-6.19-5.88-6.19-5.91,2.53-5.91,6.19,2.68,6.19,5.91,6.19M101.78,7.45c6.07,0,10.93,4.32,10.93,10.39s-4.86,10.39-10.9,10.39-10.93-4.28-10.93-10.39,4.86-10.39,10.9-10.39"/><path class="cls-2" d="M124.5,24.07c2.57,0,4.98-1.87,4.98-6.26,0-3.07-1.63-6.11-4.94-6.11-2.72,0-4.98,2.22-4.98,6.15s2.02,6.23,4.94,6.23M123.57,7.45c4.36,0,5.72,2.53,5.72,2.53h.08s-.04-.51-.04-1.13V.13h4.94v28.07h-4.67v-2.08c0-.74.08-1.28.08-1.28h-.08s-1.67,3.39-6.23,3.39c-5.37,0-8.79-4.24-8.79-10.39s3.74-10.39,8.99-10.39"/><path class="cls-2" d="M138.63,21.85s2.18,2.18,5.41,2.18c1.4,0,2.61-.62,2.61-1.79,0-2.96-9.65-2.57-9.65-8.95,0-3.7,3.31-5.84,7.59-5.84s6.65,2.26,6.65,2.26l-1.83,3.66s-1.83-1.71-4.86-1.71c-1.28,0-2.53.54-2.53,1.79,0,2.8,9.65,2.45,9.65,8.83,0,3.31-2.88,5.95-7.59,5.95-4.94,0-7.7-2.92-7.7-2.92l2.26-3.46Z"/><rect class="cls-4" x="164.34" y="7.45" width="6.3" height="20.73"/><rect class="cls-3" x="176.95" y="7.45" width="6.3" height="20.73"/><rect class="cls-1" x="189.56" y="7.45" width="6.3" height="20.73"/><path d="M98.14,36.73h.77l2.95,7.22h-.98l-.81-2.12h-3.11l-.81,2.12h-.98l2.96-7.22ZM99.81,41.12l-1.28-3.34-1.28,3.34h2.56Z"/><path d="M103.75,38.42v5.53h-.92v-7.22h.77l4.41,5.64v-5.63h.92v7.21h-.83l-4.35-5.53Z"/><path d="M115.11,36.73h.77l2.95,7.22h-.98l-.81-2.12h-3.11l-.81,2.12h-.98l2.96-7.22ZM116.78,41.12l-1.28-3.34-1.28,3.34h2.56Z"/><path d="M119.8,43.95v-7.22h.92v6.41h4.03v.81h-4.94Z"/><path d="M129.84,37.54h-2.49v6.41h-.92v-6.41h-2.49v-.81h5.9v.81Z"/><path d="M135.78,43.14v.81h-4.9v-7.22h4.81v.81h-3.89v2.34h3.39v.76h-3.39v2.49h3.99Z"/><path d="M137.94,38.42v5.53h-.92v-7.22h.77l4.41,5.64v-5.63h.91v7.21h-.83l-4.35-5.53Z"/><path d="M146.96,40.28c0-.44.08-.87.23-1.3.15-.42.38-.81.67-1.16s.66-.63,1.08-.83c.43-.21.91-.31,1.45-.31.64,0,1.2.15,1.66.44s.8.67,1.03,1.13l-.72.47c-.14-.3-.32-.55-.54-.73-.22-.18-.46-.31-.71-.38-.25-.07-.5-.11-.75-.11-.4,0-.75.08-1.06.24-.31.16-.57.38-.78.65-.21.27-.37.57-.47.91-.11.34-.16.67-.16,1.01,0,.37.06.73.19,1.08s.3.65.52.92c.22.26.49.47.79.63.31.16.64.23,1,.23.25,0,.51-.04.77-.13.26-.09.51-.23.74-.41.23-.19.41-.43.55-.73l.76.42c-.15.36-.38.66-.69.92-.31.25-.66.44-1.04.57-.38.13-.76.19-1.13.19-.49,0-.95-.11-1.36-.32-.41-.21-.77-.5-1.07-.85-.3-.36-.54-.76-.7-1.2s-.25-.89-.25-1.35Z"/><path d="M157.21,44c-.51,0-.97-.1-1.38-.3-.41-.2-.77-.48-1.07-.83-.3-.35-.53-.74-.7-1.18-.16-.44-.24-.89-.24-1.35s.09-.94.26-1.38.41-.83.72-1.17c.31-.34.67-.61,1.08-.81.41-.2.86-.3,1.35-.3s.97.11,1.38.32.77.49,1.07.84c.3.35.53.75.69,1.18.16.43.24.88.24,1.33,0,.48-.08.94-.25,1.38-.17.44-.41.83-.72,1.17-.31.34-.67.61-1.08.81s-.86.29-1.35.29ZM154.74,40.34c0,.37.06.72.18,1.06.12.34.29.65.5.91.22.26.48.47.78.63.31.16.64.23,1.02.23s.73-.08,1.04-.24c.31-.16.56-.38.78-.65.21-.27.38-.58.49-.92.11-.34.17-.68.17-1.03,0-.37-.06-.72-.18-1.06-.12-.34-.29-.64-.51-.91-.22-.27-.48-.48-.78-.63-.3-.15-.64-.23-1-.23-.39,0-.73.08-1.04.24-.31.16-.56.37-.78.65-.21.27-.38.57-.49.91-.12.34-.17.68-.17,1.03Z"/><path d="M168.13,43.95v-5.51l-2.38,4.24h-.56l-2.39-4.24v5.51h-.91v-7.22h.97l2.61,4.69,2.62-4.69h.96v7.22h-.92Z"/><path d="M170.78,43.95v-7.22h3.01c.32,0,.61.07.87.2.26.13.49.31.69.53.2.22.35.47.46.74.11.27.16.55.16.84,0,.39-.09.77-.26,1.12-.18.36-.42.64-.74.86-.32.22-.69.33-1.12.33h-2.16v2.59h-.91ZM171.69,40.54h2.11c.25,0,.47-.07.66-.2.19-.14.33-.32.44-.55.11-.23.16-.48.16-.75,0-.28-.06-.54-.18-.77-.12-.23-.28-.4-.48-.53-.2-.13-.41-.19-.65-.19h-2.04v3Z"/><path d="M178.79,36.73h.77l2.95,7.22h-.98l-.81-2.12h-3.1l-.81,2.12h-.98l2.96-7.22ZM180.45,41.12l-1.28-3.34-1.28,3.34h2.56Z"/><path d="M184.39,38.42v5.53h-.91v-7.22h.77l4.41,5.64v-5.63h.92v7.21h-.83l-4.35-5.53Z"/><path d="M191.58,36.73l2.19,3.76,2.21-3.76h1l-2.75,4.59v2.63h-.91v-2.65l-2.74-4.57h1.01Z"/></svg>