<svg xmlns="http://www.w3.org/2000/svg" width="400.1" height="305" viewBox="0 0 400.1 305" preserveAspectRatio="xMidYMid meet">
	<style>path{fill:#0080a3}@media (prefers-color-scheme:dark){path{fill:#ffffff}}</style>
	<path d="m77.2 0h214.4c51.3 0 82.9 41 81.1 86 0 0-.2 86.8-.2 130.3-1.2 21.2 9.2 21 26.7 24.3v14.5c-34.7-1.2-76.2 12.9-76.2-40.2 0-1-1.8-.8-2.2 0-27.8 43.9-106 55.7-144.6 19.6-51.7 26.5-102.3 24.3-157.6 17.4-5.5-1-10.8-2.7-16.1-4.7-1.4-17.4-2.5-60.2-2.5-60.2h18.4c0 6.9 5.7 18 14.7 29 26.7 33.3 116.8 26.3 114.5-24.5-.8-19.4-8.2-24.3-23.1-32.1-27-13.1-55.1-28.4-83.1-39.4-26.1-10.2-39.6-30.2-39.2-57.6-.2-37.7 32.3-57.7 75-62.4zm110.4 140c42.9-29.2 109.9-24.7 124.3-26.7 7.4-1 8.4-2 8.4-10.6v-40.4c-2.7-29.4-17.4-43.9-46.8-43.9h-174c-38.2-3.5-66.2 30-30.6 58 17.8 14.9 40.6 21.4 60.8 31.9 19.6 10.1 38.8 21.1 57.9 31.7zm133.6-6.1c-39.2 0-72.9 1.6-98.6 30.2-20.4 24.1-6.1 63.5 24.1 68.6 31 5.3 64.9-14.7 72.3-45.3 4-16.7 2.2-53.7 2.2-53.5zm-302 146c-1.8-2.2-4.5-3.3-7.4-3.1-2-.2-4.1.4-5.7 1.6-1.2 1-1.8 2.7-1.8 4.3 0 .8.2 1.6.4 2.2.4.6.8 1.2 1.4 1.6.8.4 1.6.8 2.5 1 1 .2 2.2.6 3.7 1 1.4.2 2.7.6 3.9 1 1 .4 2 .8 3.1 1.4.8.6 1.4 1.4 1.8 2.2.4 1 .6 2 .6 3.3s-.2 2.2-.6 3.3-1.2 1.8-2 2.5c-.8.6-2 1.2-3.1 1.4-1.2.4-2.7.4-3.9.4-4.1 0-7.8-1.4-10.6-4.3l1-1.6c1.2 1.2 2.7 2.2 4.1 3.1 1.8.8 3.7 1.2 5.5 1.2 1.8.2 3.9-.4 5.5-1.4 1.4-1 2-2.5 2-4.3 0-.8-.2-1.6-.6-2.5-.4-.6-1-1.2-1.6-1.8-.8-.6-1.6-1-2.7-1.2-1.2-.4-2.5-.8-3.7-1-1.4-.4-2.7-.6-3.9-1-1-.4-1.8-.8-2.9-1.4-.6-.6-1.2-1.2-1.6-2-.4-1-.6-2-.6-3.1 0-1.2.2-2.5.6-3.5s1.2-1.8 2-2.5c.8-.8 1.8-1.2 3.1-1.6 1.2-.4 2.7-.6 3.9-.6 1.6 0 3.3.2 4.7.8s2.7 1.4 3.7 2.7zm5.9 1.8 7.8 12.3 7.8-12.3h2l-8.8 13.9v8.4h-1.8v-8.4l-8.8-13.9zm34.1 4.1c-1.6-1.6-3.9-2.5-6.1-2.5-1.6-.2-3.3.2-4.7 1.2-1 .8-1.4 2-1.4 3.3 0 .6.2 1.2.4 1.6s.6.8 1.2 1.2 1.4.6 2 .8c.8.2 1.8.4 2.9.8 1 .2 2.2.4 3.3.8.8.2 1.6.6 2.5 1.2.6.4 1.2 1 1.6 1.6.4.8.6 1.6.6 2.5 0 .8-.2 1.8-.6 2.7-.4.8-1 1.4-1.6 1.8-.8.6-1.6.8-2.5 1-4.3 1-8.8 0-12-2.9l1-1.6c1 1 2 1.8 3.5 2.2 1.4.6 3.1.8 4.5.8 1.6 0 3.1-.2 4.5-1 1-.6 1.6-1.8 1.6-3.1 0-.6-.2-1.2-.4-1.8-.4-.6-.8-1-1.2-1.2-.6-.4-1.4-.8-2.2-1s-1.8-.4-3.1-.8c-1-.2-2-.4-3.1-.8-.8-.2-1.6-.6-2.2-1s-1-1-1.4-1.6c-.4-.8-.6-1.4-.4-2.2 0-1 .2-1.8.6-2.7.4-.8 1-1.4 1.6-2 .8-.6 1.6-1 2.5-1.2 1-.2 2-.4 3.1-.4 2.7 0 5.1.8 6.9 2.7zm22.7-2.2h-8.2v20.4h-1.6v-20.4h-8.2v-1.8h18.2zm19.2 18.8v1.6h-15.1v-22.3h14.7v1.8h-12.9v8.4h11.4v1.6h-11.4v8.8h13.3zm25.5 1.6v-18.8l-8.8 14.5h-1l-8.8-14.5v18.8h-1.8v-22.3h1.8l9.2 15.5 9.4-15.5h1.8v22.3zm21.4-18.2c-1.6-1.6-3.9-2.5-6.1-2.5-1.6-.2-3.3.2-4.7 1.2-1 .8-1.4 2-1.4 3.3 0 .6.2 1.2.4 1.6s.6.8 1.2 1.2 1.4.6 2 .8c.8.2 1.8.4 2.9.8 1 .2 2.2.4 3.3.8.8.2 1.6.6 2.5 1.2.6.4 1.2 1 1.6 1.6.4.8.6 1.6.6 2.5 0 .8-.2 1.8-.6 2.7-.4.8-1 1.4-1.6 1.8-.8.6-1.6.8-2.5 1-4.3 1-8.8 0-12-2.9l1-1.6c1 1 2 1.8 3.5 2.2 1.4.6 3.1.8 4.5.8 1.6 0 3.1-.2 4.5-1 1-.6 1.6-1.8 1.6-3.1 0-.6-.2-1.2-.4-1.8-.4-.6-.8-1-1.2-1.2-.6-.4-1.4-.8-2.2-1s-1.8-.4-3.1-.8c-1-.2-2-.4-3.1-.8-.8-.2-1.6-.6-2.2-1s-1-1-1.4-1.6c-.4-.8-.6-1.6-.4-2.5 0-1 .2-1.8.6-2.7.4-.8 1-1.4 1.6-2 .8-.6 1.6-1 2.5-1.2 1-.2 2-.4 3.3-.4 2.7 0 5.1.8 6.9 2.7zm15.6-10.8h1.6l11.4 29h-2l-3.7-9.6h-12.9l-3.7 9.6h-2zm6.7 17.8-5.9-15.1-5.9 15.1zm8.2 0c0-1.4.2-2.9.6-4.1s1.2-2.5 2-3.5c1-1 2-1.8 3.3-2.5 1.4-.6 3.1-1 4.5-1 1.8 0 3.7.4 5.1 1.4 1.4.8 2.5 2 3.3 3.5l-1.4 1c-.4-.6-.8-1.4-1.4-1.8-1-1-2.2-1.6-3.7-1.8-.6-.2-1.4-.2-2-.2-1.2 0-2.7.2-3.7.8s-2 1.2-2.7 2.2c-.8.8-1.2 1.8-1.6 3.1-.4 1-.6 2.2-.6 3.5 0 1.2.2 2.5.6 3.7.4 1 1 2.2 1.8 3.1s1.8 1.6 2.9 2c1 .6 2.2.8 3.5.8.6 0 1.4 0 2-.2s1.4-.4 2-.8l1.8-1.2c.6-.6 1-1.2 1.4-1.8l1.4.8c-.4.8-.8 1.6-1.6 2.2-.6.6-1.4 1.2-2.2 1.6s-1.6.8-2.5 1c-.8.2-1.8.4-2.7.4-1.4 0-2.9-.4-4.3-1-1.2-.6-2.5-1.6-3.3-2.7-1-1-1.6-2.5-2.2-3.7-.1-2.2-.3-3.4-.3-4.8zm22.4 0c0-1.4.2-2.9.6-4.1s1.2-2.5 2-3.5c1-1 2-1.8 3.3-2.5 1.4-.6 2.9-1 4.5-1 1.8 0 3.7.4 5.1 1.4 1.4.8 2.5 2 3.3 3.5l-1.4 1c-.4-.6-.8-1.4-1.4-1.8-1-1-2.2-1.6-3.7-1.8-.6-.2-1.4-.2-2-.2-1.2 0-2.7.2-3.7.8s-2 1.2-2.7 2.2c-.8.8-1.2 1.8-1.6 3.1-.4 1-.6 2.2-.6 3.5 0 1.2.2 2.5.6 3.7.4 1 1 2 1.8 3.1.8.8 1.8 1.6 2.9 2 1 .6 2.2.8 3.5.8.6 0 1.4 0 2-.2s1.4-.4 2-.8l1.8-1.2c.6-.6 1-1.2 1.4-1.8l1.6.8c-.4.8-.8 1.6-1.6 2.2-.6.6-1.4 1.2-2.2 1.6s-1.6.8-2.5 1c-.8.2-1.8.4-2.7.4-1.4 0-2.9-.4-4.3-1-1.2-.6-2.5-1.6-3.3-2.7-1-1-1.6-2.5-2.2-3.7-.3-2.2-.5-3.4-.5-4.8zm32.9 11.4c-1.4 0-2.9-.4-4.3-1-1.2-.6-2.5-1.4-3.3-2.5-1.8-2.2-2.9-4.9-2.9-7.8s1-5.7 3.1-7.8c1-1 2-1.8 3.3-2.5 1.2-.6 2.7-1 4.3-.8 1.4 0 2.9.4 4.3 1 1.2.6 2.5 1.4 3.3 2.7.8 1 1.6 2.2 2 3.7.4 1.2.8 2.7.8 4.1 0 2.9-1 5.7-3.1 8-1 1-2 1.8-3.3 2.5-1.3 0-2.8.4-4.2.4zm-8.8-11.2c0 1.2.2 2.5.6 3.7.4 1 1 2.2 1.8 3.1.8.8 1.6 1.6 2.9 2 1 .6 2.2.8 3.5.8 1.2 0 2.5-.2 3.7-.8 1-.6 2-1.2 2.7-2.2.8-.8 1.4-2 1.8-3.1.4-1 .6-2.2.6-3.5 0-1.2-.2-2.5-.6-3.5s-1-2.2-1.8-3.1c-.8-.8-1.6-1.6-2.9-2-2.2-1-4.9-1-7.1 0-1 .6-2 1.2-2.7 2.2-.8.8-1.4 2-1.8 3.1-.5.8-.7 2.1-.7 3.3zm33.5 9.6c1.2 0 2.7-.2 3.7-.8s1.6-1.2 2.2-2.2 1-2 1.2-3.1c.2-1.2.4-2.2.4-3.5v-11.2h1.8v11.2c0 1.4-.2 2.9-.4 4.3-.2 1.2-.8 2.5-1.6 3.7-.8 1-1.8 1.8-2.9 2.5-2.9 1.2-5.9 1.2-8.8 0-1.2-.6-2-1.4-2.9-2.5-.8-1-1.2-2.2-1.6-3.7-.4-1.4-.4-2.7-.4-4.1v-11.4h1.8v11.2c0 1.2.2 2.5.4 3.5s.6 2 1.2 3.1c.6.8 1.4 1.6 2.5 2 .7.6 2 1 3.4 1zm17.4-17.2v18.6h-1.9v-22.3h1.4l15.5 19v-19h1.8v22.3h-1.6zm39.4-1.8h-8.2v20.4h-1.8v-20.4h-8.2v-1.8h18.2zm-.4 20.4 9.6-22.3h1.4l9.4 22.3h-1.8l-3.1-7.1h-10.6l-3.1 7.1zm10.2-19.8-4.9 11h9.6zm16.1 1.2v18.6h-1.8v-22.3h1.4l15.5 19v-19h1.8v22.3h-1.6zm39.4-1.8h-8.2v20.4h-1.8v-20.4h-8.2v-1.8h18.2zm17.2 2.2c-1.6-1.6-3.9-2.5-6.1-2.5-1.6-.2-3.3.2-4.7 1.2-1 .8-1.4 2-1.4 3.3 0 .6.2 1.2.4 1.6s.6.8 1.2 1.2 1.4.6 2 .8c.8.2 1.8.4 2.9.8 1 .2 2.2.4 3.3.8.8.2 1.6.6 2.5 1.2.6.4 1.2 1 1.6 1.6.4.8.6 1.6.6 2.5 0 .8-.2 1.8-.6 2.7-.4.8-1 1.4-1.6 1.8-.8.6-1.6.8-2.5 1-4.3 1-8.8 0-12-2.9l1-1.6c1 1 2 1.8 3.5 2.2 1.4.6 3.1.8 4.5.8 1.6 0 3.1-.2 4.5-1 1-.6 1.6-1.8 1.6-3.1 0-.6-.2-1.2-.4-1.8-.4-.6-.8-1-1.2-1.2-.6-.4-1.4-.8-2.2-1s-1.8-.4-3.1-.8c-1-.2-2-.4-3.1-.8-.8-.2-1.6-.6-2.2-1s-1-1-1.4-1.6c-.4-.8-.6-1.4-.4-2.2 0-1 .2-1.8.6-2.7.4-.8 1-1.4 1.6-2 .8-.6 1.6-1 2.5-1.2 1-.2 2-.4 3.3-.4 2.7 0 5.1.8 6.9 2.7z"/></svg>