<svg xmlns="http://www.w3.org/2000/svg" viewBox="-2.0 -2.0 403.2 274.6" preserveAspectRatio="xMidYMid meet">
	<path fill="#1a1a1a" d="m77.2 0h214.4c51.3 0 82.9 41 81.1 86 0 0-.2 86.8-.2 130.3-1.2 21.2 9.2 21 26.7 24.3v14.5c-34.7-1.2-76.2 12.9-76.2-40.2 0-1-1.8-.8-2.2 0-27.8 43.9-106 55.7-144.6 19.6-51.7 26.5-102.3 24.3-157.6 17.4-5.5-1-10.8-2.7-16.1-4.7-1.4-17.4-2.5-60.2-2.5-60.2h18.4c0 6.9 5.7 18 14.7 29 26.7 33.3 116.8 26.3 114.5-24.5-.8-19.4-8.2-24.3-23.1-32.1-27-13.1-55.1-28.4-83.1-39.4-26.1-10.2-39.6-30.2-39.2-57.6-.2-37.7 32.3-57.7 75-62.4zm110.4 140c42.9-29.2 109.9-24.7 124.3-26.7 7.4-1 8.4-2 8.4-10.6v-40.4c-2.7-29.4-17.4-43.9-46.8-43.9h-174c-38.2-3.5-66.2 30-30.6 58 17.8 14.9 40.6 21.4 60.8 31.9 19.6 10.1 38.8 21.1 57.9 31.7zm133.6-6.1c-39.2 0-72.9 1.6-98.6 30.2-20.4 24.1-6.1 63.5 24.1 68.6 31 5.3 64.9-14.7 72.3-45.3 4-16.7 2.2-53.7 2.2-53.5z"/>
</svg>